<svg width="261" height="234" viewBox="0 0 261 234" fill="none" xmlns="http://www.w3.org/2000/svg">
<path d="M6.64529 91.1066L130.5 6.06517L254.355 91.1066L207.164 228.363H53.8355L6.64529 91.1066Z" stroke="white" stroke-width="10"/>
<g filter="url(#filter0_d_0_1)">
<path d="M113.717 146.235L106.922 186.341L93.7039 186.396L111.068 83.9483L145.24 83.877C155.787 83.8333 163.931 86.612 169.673 92.2133C175.415 97.7676 177.907 105.187 177.149 114.472C176.345 124.272 172.463 131.999 165.502 137.653C158.588 143.307 149.436 146.157 138.045 146.204L113.717 146.235ZM115.57 135.188L138.351 135.164C145.523 135.134 151.398 133.305 155.977 129.677C160.556 126.048 163.23 121.021 164.001 114.596C164.727 108.828 163.512 104.169 160.357 100.619C157.201 97.0228 152.623 95.1433 146.622 94.9807L122.364 95.011L115.57 135.188Z" fill="#36AAEB"/>
<path d="M113.717 146.235L113.716 145.235L112.872 145.236L112.731 146.068L113.717 146.235ZM106.922 186.341L106.927 187.341L107.768 187.338L107.908 186.508L106.922 186.341ZM93.7039 186.396L92.7179 186.229L92.5193 187.401L93.708 187.396L93.7039 186.396ZM111.068 83.9483L111.066 82.9483L110.223 82.9501L110.082 83.7812L111.068 83.9483ZM145.24 83.877L145.242 84.877L145.244 84.877L145.24 83.877ZM169.673 92.2133L168.975 92.9291L168.978 92.932L169.673 92.2133ZM177.149 114.472L178.145 114.553L178.145 114.553L177.149 114.472ZM165.502 137.653L164.872 136.877L164.869 136.879L165.502 137.653ZM138.045 146.204L138.047 147.204L138.05 147.204L138.045 146.204ZM115.57 135.188L114.584 135.021L114.386 136.189L115.571 136.188L115.57 135.188ZM138.351 135.164L138.352 136.164L138.355 136.164L138.351 135.164ZM164.001 114.596L163.008 114.471L163.008 114.477L164.001 114.596ZM160.357 100.619L159.605 101.279L159.609 101.284L160.357 100.619ZM146.622 94.9807L146.649 93.9811L146.635 93.9807L146.621 93.9807L146.622 94.9807ZM122.364 95.011L122.363 94.011L121.519 94.012L121.378 94.8442L122.364 95.011ZM112.731 146.068L105.937 186.174L107.908 186.508L114.703 146.402L112.731 146.068ZM106.918 185.341L93.6997 185.396L93.708 187.396L106.927 187.341L106.918 185.341ZM94.6898 186.563L112.054 84.1154L110.082 83.7812L92.7179 186.229L94.6898 186.563ZM111.07 84.9483L145.242 84.877L145.238 82.877L111.066 82.9483L111.07 84.9483ZM145.244 84.877C155.614 84.834 163.474 87.5632 168.975 92.9291L170.372 91.4974C164.389 85.6609 155.96 82.8325 145.236 82.877L145.244 84.877ZM168.978 92.932C174.468 98.2425 176.89 105.349 176.152 114.39L178.145 114.553C178.924 105.025 176.363 97.2928 170.369 91.4945L168.978 92.932ZM176.152 114.39C175.369 123.947 171.6 131.412 164.872 136.877L166.133 138.429C173.327 132.586 177.322 124.596 178.145 114.553L176.152 114.39ZM164.869 136.879C158.177 142.351 149.267 145.158 138.041 145.204L138.05 147.204C149.605 147.156 159 144.262 166.135 138.427L164.869 136.879ZM138.044 145.204L113.716 145.235L113.718 147.235L138.047 147.204L138.044 145.204ZM115.571 136.188L138.352 136.164L138.35 134.164L115.569 134.188L115.571 136.188ZM138.355 136.164C145.699 136.133 151.807 134.257 156.598 130.46L155.356 128.893C150.99 132.353 145.347 134.135 138.347 134.164L138.355 136.164ZM156.598 130.46C161.407 126.65 164.196 121.372 164.993 114.715L163.008 114.477C162.265 120.671 159.705 125.447 155.356 128.893L156.598 130.46ZM164.993 114.721C165.746 108.736 164.493 103.767 161.104 99.9547L159.609 101.284C162.531 104.57 163.707 108.919 163.008 114.471L164.993 114.721ZM161.108 99.9596C157.725 96.1031 152.853 94.1492 146.649 93.9811L146.595 95.9804C152.393 96.1375 156.678 97.9425 159.605 101.279L161.108 99.9596ZM146.621 93.9807L122.363 94.011L122.366 96.011L146.624 95.9807L146.621 93.9807ZM121.378 94.8442L114.584 135.021L116.556 135.355L123.35 95.1777L121.378 94.8442Z" fill="#3694EB"/>
</g>
<defs>
<filter id="filter0_d_0_1" x="93.2795" y="83.67" width="95.3611" height="110.726" filterUnits="userSpaceOnUse" color-interpolation-filters="sRGB">
<feFlood flood-opacity="0" result="BackgroundImageFix"/>
<feColorMatrix in="SourceAlpha" type="matrix" values="0 0 0 0 0 0 0 0 0 0 0 0 0 0 0 0 0 0 127 0" result="hardAlpha"/>
<feOffset dx="10" dy="8"/>
<feComposite in2="hardAlpha" operator="out"/>
<feColorMatrix type="matrix" values="0 0 0 0 0 0 0 0 0 0.760784 0 0 0 0 0.796078 0 0 0 0.36 0"/>
<feBlend mode="normal" in2="BackgroundImageFix" result="effect1_dropShadow_0_1"/>
<feBlend mode="normal" in="SourceGraphic" in2="effect1_dropShadow_0_1" result="shape"/>
</filter>
</defs>
</svg>
