<svg width="471" height="470" viewBox="0 0 471 470" fill="none" xmlns="http://www.w3.org/2000/svg">
<circle cx="235" cy="235" r="235" fill="#8D70BB"/>
<g filter="url(#filter0_d_56_10)">
<path d="M184.353 316.493C183.02 316.496 181.935 315.999 181.099 315.001C180.263 313.836 179.843 312.504 179.839 311.004C180 308.503 180.496 307.002 181.328 306.5C182.327 305.998 183.993 305.744 186.327 305.738C191.16 305.726 194.741 304.884 197.07 303.212C199.399 301.373 200.811 299.203 201.305 296.701C201.965 294.033 202.373 290.615 202.529 286.448L202.287 187.199C202.11 183.032 201.685 179.7 201.012 177.202C200.506 174.536 199.084 172.373 196.746 170.712C194.409 168.884 190.823 167.977 185.99 167.988L184.49 167.992C182.823 167.996 181.573 167.749 180.738 167.251C180.07 166.586 179.649 165.087 179.477 162.754C179.473 161.254 179.887 160.003 180.718 159.001C181.548 157.833 182.63 157.247 183.964 157.243C194.798 157.717 204.799 157.942 213.965 157.92L251.465 157.828C265.965 157.793 279.972 160.759 293.487 166.726C307.168 172.692 314.031 184.675 314.075 202.675C314.099 212.675 311.121 221.599 305.14 229.447C299.16 237.295 291.341 243.398 281.685 247.755C272.196 252.111 262.284 254.302 251.951 254.327C242.451 254.351 234.115 253.038 226.941 250.388L227.029 286.388C227.206 290.555 227.548 293.97 228.054 296.636C228.727 299.134 230.233 301.297 232.57 303.125C234.908 304.786 238.493 305.61 243.326 305.599L244.826 305.595C246.493 305.591 247.661 305.921 248.329 306.586C249.163 307.084 249.667 308.5 249.839 310.833C249.843 312.333 249.429 313.667 248.599 314.836C247.935 315.837 246.853 316.34 245.353 316.344C234.685 315.87 224.268 315.645 214.101 315.67C205.101 315.692 195.185 315.966 184.353 316.493ZM244.674 243.095C250.674 243.08 256.837 241.899 263.165 239.55C269.659 237.034 275.149 232.854 279.634 227.01C284.12 220.999 286.351 213.16 286.327 203.493C286.291 188.827 281.601 179.088 272.255 174.277C262.91 169.467 252.988 167.075 242.488 167.1C238.154 167.111 234.906 167.619 232.741 168.624C230.577 169.463 228.998 171.217 228.004 173.886C227.178 176.554 226.771 180.722 226.785 186.389L226.917 240.389C230.921 242.212 236.84 243.114 244.674 243.095Z" fill="#E3E3E3"/>
</g>
<line x1="151.315" y1="126.096" x2="3.86787" y2="229.34" stroke="black" stroke-width="10"/>
<line x1="4.65861" y1="227.088" x2="127.412" y2="349.841" stroke="black" stroke-width="10"/>
<line x1="339.464" y1="348.744" x2="466.744" y2="221.464" stroke="black" stroke-width="10"/>
<line x1="465.337" y1="225.669" x2="323.132" y2="126.096" stroke="black" stroke-width="10"/>
<g filter="url(#filter1_d_56_10)">
<path d="M234.283 303.869C233.9 303.858 233.605 303.721 233.399 303.459C233.237 303.156 233.162 302.812 233.173 302.428C233.234 301.79 233.373 301.41 233.59 301.288C233.807 301.166 234.214 301.114 234.811 301.131C236.048 301.167 236.971 300.98 237.58 300.571C238.191 300.12 238.57 299.576 238.716 298.94C238.907 298.262 239.039 297.391 239.112 296.326L239.847 270.993C239.837 269.883 239.755 269.005 239.603 268.36C239.494 267.717 239.147 267.152 238.564 266.666C237.98 266.179 237.07 265.918 235.834 265.882L235.45 265.871C235.023 265.859 234.727 265.786 234.56 265.653C234.394 265.478 234.299 265.091 234.273 264.492C234.284 264.108 234.379 263.791 234.557 263.54C234.779 263.248 235.082 263.107 235.466 263.118C238.234 263.327 240.77 263.464 243.073 263.531L254.076 263.85C257.359 263.988 260.073 264.6 262.218 265.687C264.408 266.732 265.991 268.059 266.969 269.666C267.948 271.232 268.411 272.91 268.36 274.701C268.291 277.047 267.291 279.173 265.357 281.081C263.466 282.989 260.909 284.324 257.686 285.084L258.723 286.843C260.431 289.795 261.979 292.337 263.368 294.468C264.759 296.558 266.281 298.523 267.935 300.363C269.101 301.379 270.364 301.992 271.724 302.202C271.809 302.204 272 302.231 272.297 302.283C272.596 302.291 272.827 302.405 272.992 302.623C273.199 302.842 273.296 303.165 273.284 303.592C273.273 303.976 273.156 304.314 272.934 304.606C272.756 304.857 272.475 304.977 272.092 304.966L270.43 304.854C268.556 304.714 267.193 304.632 266.34 304.607C264.643 304.216 263.189 303.576 261.977 302.688C260.809 301.757 259.651 300.465 258.504 298.809C257.315 297.153 255.664 294.458 253.553 290.726L252.455 288.838C251.844 287.838 251.244 287.159 250.657 286.801C250.071 286.4 249.053 286.178 247.603 286.136L245.748 286.082L245.446 296.51C245.457 297.577 245.517 298.454 245.625 299.14C245.777 299.785 246.145 300.35 246.729 300.837C247.313 301.28 248.224 301.52 249.461 301.556L249.845 301.567C250.229 301.578 250.503 301.672 250.669 301.847C250.878 301.982 250.996 302.348 251.021 302.946C251.01 303.33 250.894 303.668 250.672 303.96C250.494 304.211 250.213 304.331 249.829 304.32C247.103 304.113 244.439 303.972 241.838 303.896C239.577 303.831 237.059 303.822 234.283 303.869ZM251.45 283.75C257.805 283.935 261.069 281.041 261.242 275.071C261.312 272.64 260.54 270.568 258.925 268.857C257.31 267.145 254.605 266.235 250.809 266.124C249.572 266.089 248.629 266.211 247.981 266.491C247.333 266.771 246.87 267.269 246.593 267.987C246.359 268.706 246.22 269.812 246.177 271.304L245.82 283.587L251.45 283.75Z" fill="#ADF5FF"/>
</g>
<line x1="0.5" y1="226" x2="0.5" y2="230" stroke="black"/>
<path d="M1.74825 228.44C1.6676 228.375 1.43761 228.194 1.56293 228.069" stroke="black" stroke-width="3" stroke-linecap="round"/>
<defs>
<filter id="filter0_d_56_10" x="179.464" y="156.925" width="143.889" height="173.578" filterUnits="userSpaceOnUse" color-interpolation-filters="sRGB">
<feFlood flood-opacity="0" result="BackgroundImageFix"/>
<feColorMatrix in="SourceAlpha" type="matrix" values="0 0 0 0 0 0 0 0 0 0 0 0 0 0 0 0 0 0 127 0" result="hardAlpha"/>
<feOffset dx="5" dy="10"/>
<feGaussianBlur stdDeviation="2"/>
<feComposite in2="hardAlpha" operator="out"/>
<feColorMatrix type="matrix" values="0 0 0 0 0.030625 0 0 0 0 0.0362625 0 0 0 0 0.0375 0 0 0 1 0"/>
<feBlend mode="normal" in2="BackgroundImageFix" result="effect1_dropShadow_56_10"/>
<feBlend mode="normal" in="SourceGraphic" in2="effect1_dropShadow_56_10" result="shape"/>
</filter>
<filter id="filter1_d_56_10" x="229.132" y="263.085" width="49.2932" height="49.9144" filterUnits="userSpaceOnUse" color-interpolation-filters="sRGB">
<feFlood flood-opacity="0" result="BackgroundImageFix"/>
<feColorMatrix in="SourceAlpha" type="matrix" values="0 0 0 0 0 0 0 0 0 0 0 0 0 0 0 0 0 0 127 0" result="hardAlpha"/>
<feOffset dy="4"/>
<feGaussianBlur stdDeviation="2"/>
<feComposite in2="hardAlpha" operator="out"/>
<feColorMatrix type="matrix" values="0 0 0 0 0 0 0 0 0 0 0 0 0 0 0 0 0 0 1 0"/>
<feBlend mode="normal" in2="BackgroundImageFix" result="effect1_dropShadow_56_10"/>
<feBlend mode="normal" in="SourceGraphic" in2="effect1_dropShadow_56_10" result="shape"/>
</filter>
</defs>
</svg>
